<mxfile host="app.diagrams.net" modified="2023-11-03T02:17:14.120Z" agent="Mozilla/5.0 (Windows NT 10.0; Win64; x64) AppleWebKit/537.36 (KHTML, like Gecko) Chrome/116.0.5845.833 YaBrowser/23.9.4.833 Yowser/2.5 Safari/537.36" version="22.0.8" etag="mhdmA83BFOIg5idudLM7" type="github">
  <diagram name="Page-1" id="HGPwwvY6KHSOpUENS4j6">
    <mxGraphModel>
      <root>
        <mxCell id="0" />
        <mxCell id="1" parent="0" />
      </root>
    </mxGraphModel>
  </diagram>
</mxfile>
